<?xml version="1.0" encoding="utf-8"?>
<!-- Generator: Adobe Illustrator 24.1.0, SVG Export Plug-In . SVG Version: 6.00 Build 0)  -->
<svg version="1.1" id="Layer_1" xmlns="http://www.w3.org/2000/svg" xmlns:xlink="http://www.w3.org/1999/xlink" x="0px" y="0px"
	 viewBox="0 0 106.5 106.5" style="enable-background:new 0 0 106.5 106.5;" xml:space="preserve">
<style type="text/css">
	.st0{fill:#9BFFFF;}
	.st1{opacity:0.4;fill:#263238;enable-background:new    ;}
	.st2{fill:#D5EEFF;}
	.st3{opacity:0.5;fill:#D5EEFF;enable-background:new    ;}
	.st4{opacity:0.8;fill:#D5EEFF;enable-background:new    ;}
	.st5{opacity:0.4;fill:#D5EEFF;enable-background:new    ;}
	.st6{opacity:0.6;fill:#D5EEFF;enable-background:new    ;}
	.st7{fill:none;stroke:#000000;stroke-width:2;stroke-miterlimit:10;}
	.st8{fill:#B7F3DA;fill-opacity:0.8;stroke:#000000;stroke-width:1.0703;stroke-linecap:round;stroke-linejoin:round;}
	.st9{opacity:0.31;fill:#263238;enable-background:new    ;}
	.st10{fill:none;stroke:#000000;stroke-linecap:round;stroke-linejoin:round;}
	.st11{fill:none;stroke:#000000;stroke-width:1.1196;stroke-linecap:round;stroke-linejoin:round;}
</style>
<path class="st0" d="M52.9,3.2c27.4,0,49.6,22.2,49.6,49.6s-22.2,49.6-49.6,49.6C27.9,102.5,7.2,84,3.8,60c-0.3-2.3-0.5-4.7-0.5-7.1
	C3.3,25.5,25.5,3.2,52.9,3.2z"/>
<path class="st1" d="M74.7,8.2c13.3,34.6-18,79.3-50.2,85.1c9.4,6,19.2,9.3,28.4,9c30.1-1,50.9-23.5,49.6-49.6
	C101.4,31.8,92.5,18,74.7,8.2z"/>
<path class="st2" d="M45.4,101.9c28.3-13.6,35.7-13.4,56.3-40.1C100.4,76.8,59.6,104.3,45.4,101.9z"/>
<path class="st3" d="M18.9,89c15.7-4,61.8-33.6,78.8-57.5l4.4,15c-19,23.8-46.4,37.3-73.4,49.7L18.9,89z"/>
<path class="st4" d="M9.5,76.9c30.6-13.4,59.1-29.4,84-52.5l2.9,4.6C73.9,55,42.8,67.4,12.9,82.3L9.5,76.9z"/>
<path class="st5" d="M3.2,63.1c0,0,27-44.7,82.1-48.4l8.2,8c0,0-45.1-3.1-88.9,44.8L3.2,63.1z"/>
<path class="st6" d="M2.9,58.7c0,0,16.5-51.8,74.4-49.8l5,3.4C82.3,12.3,34.9,5.5,2.9,58.7z"/>
<circle class="st7" cx="52.9" cy="52.9" r="49.6"/>
<path class="st8" d="M90.3,85.4c1.8,6,1.7,10.4-0.7,12.3c-6.5,5.1-27.7-11.3-47.3-36.5S12,11.4,18.5,6.4c2.3-1.8,6.5-0.9,11.9,2.2
	c0.8-0.4,1.6-0.8,2.4-1.1c-8.7-6-15.8-8.2-19.4-5.4c-8,6.2,3.3,33.9,25.2,62c21.8,28,46,45.8,53.9,39.6c3.7-2.9,3.2-10.3-0.5-20.3
	C91.4,84,90.8,84.7,90.3,85.4z"/>
<path class="st9" d="M92.5,103.7c4.1-2.2,3.2-10.3-0.5-20.3c-0.5,0.7-1.1,1.4-1.7,2c1.8,6,1.8,10.7-0.7,12.3
	c-4.7,3-15-2.5-28.1-14.7c-0.7-0.6,0.9,0.6-0.1,2.6c-0.8,1.6-1.4,1.1-2.4,1.2C76,102.2,86.6,106.9,92.5,103.7z"/>
<path class="st10" d="M15.2,6.8c0.3-1.1,0.9-1.9,1.6-2.5c1.2-0.9,3.6-1,6.3-0.2"/>
<path class="st11" d="M16.5,21.4c-0.8-2.5-1.5-4.8-1.8-6.8"/>
<path class="st11" d="M21.1,32.4c-0.7-1.4-1.3-2.8-1.9-4.1"/>
<path class="st11" d="M67.5,91.1c-1.7-1.3-3.5-2.8-5.2-4.3"/>
<path class="st11" d="M76.6,97.2c-1-0.6-2-1.2-3.1-1.9"/>
<path class="st10" d="M92.9,93.7c0.1,2.8-0.4,5-1.7,6c-0.8,0.7-2,1-3.3,1"/>
</svg>
